# xmcd
#
# Track frame offsets:
#	150
#	72056
#	132247
#	194857
#
# Disc length: 4064 seconds
#
# Revision: 0
# Processed by: cddbd v1.5.2PL0 Copyright (c) Steve Scherf et al.
# Submitted via: audiograbber 1.83.01
#
DISCID=3a0fde04
DTITLE=Ludwig van Beethoven - Symphony No. 9 [Beethoven Orchester Bonn - Stefan
DTITLE=Blunier] [MDG SACD]
DYEAR=2016
DGENRE=Classical
TTITLE0=Symphony No. 9 op. 125 D minor - Allegro ma non troppo e un poco maesto
TTITLE0=so
TTITLE1=Symphony No. 9 op. 125 D minor - Molto vivace
TTITLE2=Symphony No. 9 op. 125 D minor - Adagio molto e cantabile
TTITLE3=Symphony No. 9 op. 125 D minor - Presto - Allegro assai
EXTD=
EXTT0=
EXTT1=
EXTT2=
EXTT3=
PLAYORDER=
